<svg xmlns="http://www.w3.org/2000/svg" xmlns:xlink="http://www.w3.org/1999/xlink" viewBox="0 0 1920 1080"><defs><style>.cls-1{fill:none;}.cls-2{clip-path:url(#clip-path);}.cls-3{fill:#91141e;}.cls-4{fill:#90141e;}.cls-5{fill:#8f141e;}.cls-6{fill:#8e141e;}.cls-7{fill:#8d141e;}.cls-8{fill:#8c141e;}.cls-9{fill:#8b141e;}.cls-10{fill:#8a141e;}.cls-11{fill:#89141e;}.cls-12{fill:#88141e;}.cls-13{fill:#87141e;}.cls-14{fill:#86141e;}.cls-15{fill:#85151e;}.cls-16{fill:#84151e;}.cls-17{fill:#83151e;}.cls-18{fill:#82151e;}.cls-19{fill:#81151e;}.cls-20{fill:#80151d;}.cls-21{fill:#7f151d;}.cls-22{fill:#7e151d;}.cls-23{fill:#7d151d;}.cls-24{fill:#7c151d;}.cls-25{fill:#7b151d;}.cls-26{fill:#7a151d;}.cls-27{fill:#79161d;}.cls-28{fill:#78161d;}.cls-29{fill:#77161d;}.cls-30{fill:#76161d;}.cls-31{fill:#75161d;}.cls-32{fill:#74161d;}.cls-33{fill:#73161d;}.cls-34{fill:#72161d;}.cls-35{fill:#71161d;}.cls-36{fill:#70161d;}.cls-37{fill:#6f161d;}.cls-38{fill:#6e161d;}.cls-39{fill:#6c171d;}.cls-40{fill:#6b171d;}.cls-41{fill:#6a171d;}.cls-42{fill:#69171d;}.cls-43{fill:#68171d;}.cls-44{fill:#67171d;}.cls-45{fill:#66171d;}.cls-46{fill:#65171d;}.cls-47{fill:#64171d;}.cls-48{fill:#63171d;}.cls-49{fill:#62171d;}.cls-50{fill:#61171d;}.cls-51{fill:#60171d;}.cls-52{fill:#5f181d;}.cls-53{fill:#5e181d;}.cls-54{fill:#5d181d;}.cls-55{fill:#5c181d;}.cls-56{fill:#5b181d;}.cls-57{fill:#5a181d;}.cls-58{fill:#59181d;}.cls-59{fill:#58181c;}.cls-60{fill:#57181c;}.cls-61{fill:#56181c;}.cls-62{fill:#55181c;}.cls-63{fill:#54181c;}.cls-64{fill:#53191c;}.cls-65{fill:#52191c;}.cls-66{fill:#51191c;}.cls-67{fill:#50191c;}.cls-68{fill:#4f191c;}.cls-69{fill:#4e191c;}.cls-70{fill:#4d191c;}.cls-71{fill:#4c191c;}.cls-72{fill:#4b191c;}.cls-73{fill:#4a191c;}.cls-74{fill:#49191c;}.cls-75{fill:#48191c;}.cls-76{fill:#471a1c;}.cls-77{fill:#461a1c;}.cls-78{fill:#451a1c;}.cls-79{fill:#441a1c;}.cls-80{fill:#431a1c;}.cls-81{fill:#421a1c;}.cls-82{fill:#411a1c;}.cls-83{fill:#401a1c;}.cls-84{fill:#3f1a1c;}.cls-85{fill:#3e1a1c;}.cls-86{fill:#3d1a1c;}.cls-87{fill:#3c1a1c;}.cls-88{fill:#3b1b1c;}.cls-89{fill:#3a1b1c;}.cls-90{fill:#391b1c;}.cls-91{fill:#381b1c;}.cls-92{fill:#371b1c;}.cls-93{fill:#361b1c;}.cls-94{fill:#351b1c;}.cls-95{fill:#341b1c;}.cls-96{fill:#331b1c;}.cls-97{fill:#321b1c;}.cls-98{fill:#311b1c;}.cls-99{fill:#301b1b;}.cls-100{fill:#2f1c1b;}.cls-101{fill:#2e1c1b;}.cls-102{fill:#2d1c1b;}.cls-103{fill:#2c1c1b;}.cls-104{fill:#2b1c1b;}.cls-105{fill:#2a1c1b;}.cls-106{fill:#291c1b;}.cls-107{fill:#281c1b;}.cls-108{fill:#271c1b;}.cls-109{fill:#261c1b;}.cls-110{fill:#251c1b;}.cls-111{fill:#241c1b;}.cls-112{fill:#231d1b;}.cls-113{fill:#221d1b;}.cls-114{fill:#211d1b;}.cls-115{fill:#201d1b;}.cls-116{fill:#1f1d1b;}.cls-117{fill:#1e1d1b;}.cls-118{fill:#1d1d1b;}.cls-119{fill:#b5111f;}.cls-120{fill:#b4111f;}.cls-121{fill:#b3111f;}.cls-122{fill:#b2111f;}.cls-123{fill:#b1111f;}.cls-124{fill:#b0111f;}.cls-125{fill:#af111f;}.cls-126{fill:#ae111f;}.cls-127{fill:#ad111f;}.cls-128{fill:#ac111f;}.cls-129{fill:#ab111f;}.cls-130{fill:#aa111f;}.cls-131{fill:#a9121f;}.cls-132{fill:#a8121e;}.cls-133{fill:#a7121e;}.cls-134{fill:#a6121e;}.cls-135{fill:#a5121e;}.cls-136{fill:#a4121e;}.cls-137{fill:#a3121e;}.cls-138{fill:#a2121e;}.cls-139{fill:#a1121e;}.cls-140{fill:#a0121e;}.cls-141{fill:#9f121e;}.cls-142{fill:#9e121e;}.cls-143{fill:#9d131e;}.cls-144{fill:#9c131e;}.cls-145{fill:#9b131e;}.cls-146{fill:#9a131e;}.cls-147{fill:#99131e;}.cls-148{fill:#98131e;}.cls-149{fill:#97131e;}.cls-150{fill:#96131e;}.cls-151{fill:#95131e;}.cls-152{fill:#94131e;}.cls-153{fill:#93131e;}.cls-154{fill:#92131e;}.cls-155{fill:#bc1020;}.cls-156{fill:#bc101f;}.cls-157{fill:#bb101f;}.cls-158{fill:#ba101f;}.cls-159{fill:#b9101f;}.cls-160{fill:#b8101f;}.cls-161{fill:#b7101f;}.cls-162{fill:#b6101f;}.cls-163{fill:#cc1041;}.cls-164{fill:#cc1040;}.cls-165{fill:#cb103f;}.cls-166{fill:#cb103e;}.cls-167{fill:#ca103d;}.cls-168{fill:#ca103c;}.cls-169{fill:#c9103b;}.cls-170{fill:#c9103a;}.cls-171{fill:#c81039;}.cls-172{fill:#c81038;}.cls-173{fill:#c71037;}.cls-174{fill:#c71035;}.cls-175{fill:#c61034;}.cls-176{fill:#c61033;}.cls-177{fill:#c51032;}.cls-178{fill:#c51031;}.cls-179{fill:#c41030;}.cls-180{fill:#c4102f;}.cls-181{fill:#c3102e;}.cls-182{fill:#c3102d;}.cls-183{fill:#c2102c;}.cls-184{fill:#c2102b;}.cls-185{fill:#c1102a;}.cls-186{fill:#c11029;}.cls-187{fill:#c01028;}.cls-188{fill:#c01027;}.cls-189{fill:#bf1026;}.cls-190{fill:#bf1025;}.cls-191{fill:#be1024;}.cls-192{fill:#be1023;}.cls-193{fill:#bd1022;}.cls-194{fill:#bd1021;}.cls-195{fill:#d2104d;}.cls-196{fill:#d2104c;}.cls-197{fill:#d1104b;}.cls-198{fill:#d1104a;}.cls-199{fill:#d01049;}.cls-200{fill:#d01048;}.cls-201{fill:#cf1047;}.cls-202{fill:#cf1046;}.cls-203{fill:#ce1045;}.cls-204{fill:#ce1044;}.cls-205{fill:#cd1043;}.cls-206{fill:#cd1042;}.cls-207{fill:#fef0bf;}</style><clipPath id="clip-path"><path class="cls-1" d="M1208.59,621.48,1091,602.68,982.57,663.27l14-15.66c10.11-11.33,246.54-278.71,197.06-402.83-28.11-70.58-97.13-121.52-164.39-121.52H1028c-42.47.41-121,21.93-176.29,159.4-18.16-15.88-62.23-48.88-108.54-41.8-31.69,4.85-57.9,27.37-77.93,66.93C634,369.65,626.78,416.4,641.77,459.32,665.6,527.48,747,589.3,914.07,666l30.13,14.1L825.89,723.9V829.49l14.8-3.24,69.69,134.12,0,0,.07.22L1082.16,910l-.34-1.11.56,1.08,119.35-116.3-35.91-126.14Zm-265.77-247,.07-.37c3.88-19,20.29-82.36,68.83-101.75,32-12.75,70.58-3.58,114.73,27.29,47.32,33.11-48-90-57-73.31-21.26,39.41,68.46,14.49,13.68,14.49-14,0-110.1,3.59-121.1-.81C945.39,233.44,930.25,421.44,942.82,374.53ZM841.4,734.71l122.34-45.26V783.3L841.4,810.22Zm77,207.35-62-119.28,122.9-27v-85.5l95.86,185.65Zm265.88-153-97.72,95.19L993.3,703.62l87.92,63.53,72.49-85.61Z"/></clipPath></defs><g id="box"><g class="cls-2"><polygon class="cls-3" points="994.66 681.54 993.3 682.78 993.3 681.54 994.66 681.54"/><polygon class="cls-4" points="997.59 681.54 993.3 685.46 993.3 682.78 994.66 681.54 997.59 681.54"/><polygon class="cls-5" points="1000.53 681.54 993.3 688.15 993.3 685.46 997.59 681.54 1000.53 681.54"/><polygon class="cls-6" points="1003.47 681.54 993.3 690.83 993.3 688.15 1000.53 681.54 1003.47 681.54"/><polygon class="cls-7" points="1006.4 681.54 993.3 693.51 993.3 690.83 1003.47 681.54 1006.4 681.54"/><polygon class="cls-8" points="1009.34 681.54 993.3 696.2 993.3 693.51 1006.4 681.54 1009.34 681.54"/><polygon class="cls-9" points="1012.27 681.54 993.3 698.88 993.3 696.2 1009.34 681.54 1012.27 681.54"/><polygon class="cls-10" points="1015.21 681.54 993.3 701.56 993.3 698.88 1012.27 681.54 1015.21 681.54"/><polygon class="cls-11" points="1018.15 681.54 993.3 704.25 993.3 701.56 1015.21 681.54 1018.15 681.54"/><polygon class="cls-12" points="1021.08 681.54 993.3 706.93 993.3 704.25 1018.15 681.54 1021.08 681.54"/><polygon class="cls-13" points="1024.02 681.54 993.3 709.61 993.3 706.93 1021.08 681.54 1024.02 681.54"/><polygon class="cls-14" points="1026.96 681.54 993.3 712.3 993.3 709.61 1024.02 681.54 1026.96 681.54"/><polygon class="cls-15" points="1029.89 681.54 993.3 714.98 993.3 712.3 1026.96 681.54 1029.89 681.54"/><polygon class="cls-16" points="1032.83 681.54 993.3 717.66 993.3 714.98 1029.89 681.54 1032.83 681.54"/><polygon class="cls-17" points="1035.76 681.54 993.3 720.35 993.3 717.66 1032.83 681.54 1035.76 681.54"/><polygon class="cls-18" points="1038.7 681.54 993.3 723.03 993.3 720.35 1035.76 681.54 1038.7 681.54"/><polygon class="cls-19" points="1041.64 681.54 993.3 725.71 993.3 723.03 1038.7 681.54 1041.64 681.54"/><polygon class="cls-20" points="1044.57 681.54 993.3 728.4 993.3 725.71 1041.64 681.54 1044.57 681.54"/><polygon class="cls-21" points="1047.51 681.54 993.3 731.08 993.3 728.4 1044.57 681.54 1047.51 681.54"/><polygon class="cls-22" points="1050.45 681.54 993.3 733.76 993.3 731.08 1047.51 681.54 1050.45 681.54"/><polygon class="cls-23" points="1053.38 681.54 993.3 736.45 993.3 733.76 1050.45 681.54 1053.38 681.54"/><polygon class="cls-24" points="1056.32 681.54 993.3 739.13 993.3 736.45 1053.38 681.54 1056.32 681.54"/><polygon class="cls-25" points="1059.25 681.54 993.3 741.81 993.3 739.13 1056.32 681.54 1059.25 681.54"/><polygon class="cls-26" points="1062.19 681.54 993.3 744.5 993.3 741.81 1059.25 681.54 1062.19 681.54"/><polygon class="cls-27" points="1065.13 681.54 993.3 747.18 993.3 744.5 1062.19 681.54 1065.13 681.54"/><polygon class="cls-28" points="1068.06 681.54 993.3 749.86 993.3 747.18 1065.13 681.54 1068.06 681.54"/><polygon class="cls-29" points="1071 681.54 993.3 752.55 993.3 749.86 1068.06 681.54 1071 681.54"/><polygon class="cls-30" points="1073.94 681.54 993.3 755.23 993.3 752.55 1071 681.54 1073.94 681.54"/><polygon class="cls-31" points="1076.87 681.54 993.3 757.91 993.3 755.23 1073.94 681.54 1076.87 681.54"/><polygon class="cls-32" points="1079.81 681.54 993.3 760.6 993.3 757.91 1076.87 681.54 1079.81 681.54"/><polygon class="cls-33" points="1082.74 681.54 993.3 763.28 993.3 760.6 1079.81 681.54 1082.74 681.54"/><polygon class="cls-34" points="1085.68 681.54 993.3 765.96 993.3 763.28 1082.74 681.54 1085.68 681.54"/><polygon class="cls-35" points="1088.62 681.54 993.3 768.65 993.3 765.96 1085.68 681.54 1088.62 681.54"/><polygon class="cls-36" points="1091.55 681.54 993.3 771.33 993.3 768.65 1088.62 681.54 1091.55 681.54"/><polygon class="cls-37" points="1094.49 681.54 993.3 774.01 993.3 771.33 1091.55 681.54 1094.49 681.54"/><polygon class="cls-38" points="1097.43 681.54 993.3 776.7 993.3 774.01 1094.49 681.54 1097.43 681.54"/><polygon class="cls-39" points="1100.36 681.54 993.3 779.38 993.3 776.7 1097.43 681.54 1100.36 681.54"/><polygon class="cls-40" points="1103.3 681.54 993.3 782.06 993.3 779.38 1100.36 681.54 1103.3 681.54"/><polygon class="cls-41" points="1106.23 681.54 993.3 784.75 993.3 782.06 1103.3 681.54 1106.23 681.54"/><polygon class="cls-42" points="1109.17 681.54 993.91 786.88 993.3 786.21 993.3 784.75 1106.23 681.54 1109.17 681.54"/><polygon class="cls-43" points="1112.11 681.54 995.25 788.34 993.91 786.88 1109.17 681.54 1112.11 681.54"/><polygon class="cls-44" points="1115.04 681.54 996.58 789.8 995.25 788.34 1112.11 681.54 1115.04 681.54"/><polygon class="cls-45" points="1117.98 681.54 997.92 791.26 996.58 789.8 1115.04 681.54 1117.98 681.54"/><polygon class="cls-46" points="1120.92 681.54 999.25 792.73 997.92 791.26 1117.98 681.54 1120.92 681.54"/><polygon class="cls-47" points="1123.85 681.54 1000.59 794.19 999.25 792.73 1120.92 681.54 1123.85 681.54"/><polygon class="cls-48" points="1126.79 681.54 1001.93 795.65 1000.59 794.19 1123.85 681.54 1126.79 681.54"/><polygon class="cls-49" points="1129.72 681.54 1003.26 797.11 1001.93 795.65 1126.79 681.54 1129.72 681.54"/><polygon class="cls-50" points="1132.66 681.54 1004.6 798.57 1003.26 797.11 1129.72 681.54 1132.66 681.54"/><polygon class="cls-51" points="1135.6 681.54 1005.93 800.04 1004.6 798.57 1132.66 681.54 1135.6 681.54"/><polygon class="cls-52" points="1138.53 681.54 1007.27 801.5 1005.93 800.04 1135.6 681.54 1138.53 681.54"/><polygon class="cls-53" points="1141.47 681.54 1008.61 802.96 1007.27 801.5 1138.53 681.54 1141.47 681.54"/><polygon class="cls-54" points="1144.41 681.54 1009.94 804.42 1008.61 802.96 1141.47 681.54 1144.41 681.54"/><polygon class="cls-55" points="1147.34 681.54 1011.28 805.88 1009.94 804.42 1144.41 681.54 1147.34 681.54"/><polygon class="cls-56" points="1150.28 681.54 1012.62 807.35 1011.28 805.88 1147.34 681.54 1150.28 681.54"/><polygon class="cls-57" points="1153.21 681.54 1013.95 808.81 1012.62 807.35 1150.28 681.54 1153.21 681.54"/><polygon class="cls-58" points="1156.15 681.54 1015.29 810.27 1013.95 808.81 1153.21 681.54 1156.15 681.54"/><polygon class="cls-59" points="1157.39 681.54 1158.16 682.39 1016.62 811.73 1015.29 810.27 1156.15 681.54 1157.39 681.54"/><rect class="cls-60" x="992.19" y="746.8" width="191.73" height="1.98" transform="translate(-219.59 929.78) rotate(-42.42)"/><rect class="cls-61" x="993.53" y="748.26" width="191.73" height="1.98" transform="translate(-220.23 931.06) rotate(-42.42)"/><rect class="cls-62" x="994.87" y="749.73" width="191.73" height="1.98" transform="translate(-220.86 932.35) rotate(-42.42)"/><rect class="cls-63" x="996.2" y="751.19" width="191.73" height="1.98" transform="translate(-221.5 933.63) rotate(-42.42)"/><rect class="cls-64" x="997.54" y="752.65" width="191.73" height="1.98" transform="translate(-222.14 934.91) rotate(-42.42)"/><rect class="cls-65" x="998.87" y="754.11" width="191.73" height="1.98" transform="translate(-222.77 936.2) rotate(-42.42)"/><rect class="cls-66" x="1000.21" y="755.58" width="191.73" height="1.98" transform="translate(-223.41 937.48) rotate(-42.42)"/><rect class="cls-67" x="1001.55" y="757.04" width="191.73" height="1.98" transform="translate(-224.05 938.77) rotate(-42.42)"/><rect class="cls-68" x="1002.88" y="758.5" width="191.73" height="1.98" transform="translate(-224.68 940.05) rotate(-42.42)"/><rect class="cls-69" x="1004.22" y="759.96" width="191.73" height="1.98" transform="translate(-225.32 941.33) rotate(-42.42)"/><rect class="cls-70" x="1005.56" y="761.42" width="191.73" height="1.98" transform="translate(-225.96 942.62) rotate(-42.42)"/><rect class="cls-71" x="1006.89" y="762.89" width="191.73" height="1.98" transform="translate(-226.59 943.9) rotate(-42.42)"/><rect class="cls-72" x="1008.23" y="764.35" width="191.73" height="1.98" transform="translate(-227.23 945.19) rotate(-42.42)"/><rect class="cls-73" x="1009.56" y="765.81" width="191.73" height="1.98" transform="translate(-227.87 946.47) rotate(-42.42)"/><rect class="cls-74" x="1010.9" y="767.27" width="191.73" height="1.98" transform="translate(-228.5 947.76) rotate(-42.42)"/><rect class="cls-75" x="1012.24" y="768.74" width="191.73" height="1.98" transform="translate(-229.14 949.04) rotate(-42.42)"/><rect class="cls-76" x="1013.57" y="770.2" width="191.73" height="1.98" transform="translate(-229.78 950.32) rotate(-42.42)"/><rect class="cls-77" x="1014.91" y="771.66" width="191.73" height="1.98" transform="translate(-230.41 951.61) rotate(-42.42)"/><rect class="cls-78" x="1016.25" y="773.12" width="191.73" height="1.98" transform="translate(-231.05 952.89) rotate(-42.42)"/><polygon class="cls-79" points="1183.55 710.17 1184.28 710.97 1184.28 712.19 1043.35 840.98 1042.01 839.51 1183.55 710.17"/><polygon class="cls-80" points="1184.28 714.87 1044.68 842.44 1043.35 840.98 1184.28 712.19 1184.28 714.87"/><polygon class="cls-81" points="1184.28 717.55 1046.02 843.9 1044.68 842.44 1184.28 714.87 1184.28 717.55"/><polygon class="cls-82" points="1184.28 720.24 1047.36 845.36 1046.02 843.9 1184.28 717.55 1184.28 720.24"/><polygon class="cls-83" points="1184.28 722.92 1048.69 846.83 1047.36 845.36 1184.28 720.24 1184.28 722.92"/><polygon class="cls-84" points="1184.28 725.6 1050.03 848.29 1048.69 846.83 1184.28 722.92 1184.28 725.6"/><polygon class="cls-85" points="1184.28 728.29 1051.37 849.75 1050.03 848.29 1184.28 725.6 1184.28 728.29"/><polygon class="cls-86" points="1184.28 730.97 1052.7 851.21 1051.37 849.75 1184.28 728.29 1184.28 730.97"/><polygon class="cls-87" points="1184.28 733.65 1054.04 852.67 1052.7 851.21 1184.28 730.97 1184.28 733.65"/><polygon class="cls-88" points="1184.28 736.34 1055.37 854.14 1054.04 852.67 1184.28 733.65 1184.28 736.34"/><polygon class="cls-89" points="1184.28 739.02 1056.71 855.6 1055.37 854.14 1184.28 736.34 1184.28 739.02"/><polygon class="cls-90" points="1184.28 741.7 1058.05 857.06 1056.71 855.6 1184.28 739.02 1184.28 741.7"/><polygon class="cls-91" points="1184.28 744.39 1059.38 858.52 1058.05 857.06 1184.28 741.7 1184.28 744.39"/><polygon class="cls-92" points="1184.28 747.07 1060.72 859.99 1059.38 858.52 1184.28 744.39 1184.28 747.07"/><polygon class="cls-93" points="1184.28 749.75 1062.06 861.45 1060.72 859.99 1184.28 747.07 1184.28 749.75"/><polygon class="cls-94" points="1184.28 752.43 1063.39 862.91 1062.06 861.45 1184.28 749.75 1184.28 752.43"/><polygon class="cls-95" points="1184.28 755.12 1064.73 864.37 1063.39 862.91 1184.28 752.43 1184.28 755.12"/><polygon class="cls-96" points="1184.28 757.8 1066.06 865.83 1064.73 864.37 1184.28 755.12 1184.28 757.8"/><polygon class="cls-97" points="1184.28 760.49 1067.4 867.3 1066.06 865.83 1184.28 757.8 1184.28 760.49"/><polygon class="cls-98" points="1184.28 763.17 1068.74 868.76 1067.4 867.3 1184.28 760.49 1184.28 763.17"/><polygon class="cls-99" points="1184.28 765.85 1070.07 870.22 1068.74 868.76 1184.28 763.17 1184.28 765.85"/><polygon class="cls-100" points="1184.28 768.53 1071.41 871.68 1070.07 870.22 1184.28 765.85 1184.28 768.53"/><polygon class="cls-101" points="1184.28 771.22 1072.74 873.14 1071.41 871.68 1184.28 768.53 1184.28 771.22"/><polygon class="cls-102" points="1184.28 773.9 1074.08 874.61 1072.74 873.14 1184.28 771.22 1184.28 773.9"/><polygon class="cls-103" points="1184.28 776.59 1075.42 876.07 1074.08 874.61 1184.28 773.9 1184.28 776.59"/><polygon class="cls-104" points="1184.28 779.27 1076.75 877.53 1075.42 876.07 1184.28 776.59 1184.28 779.27"/><polygon class="cls-105" points="1184.28 781.95 1078.09 878.99 1076.75 877.53 1184.28 779.27 1184.28 781.95"/><polygon class="cls-106" points="1184.28 784.63 1079.43 880.46 1078.09 878.99 1184.28 781.95 1184.28 784.63"/><polygon class="cls-107" points="1184.28 787.32 1080.76 881.92 1079.43 880.46 1184.28 784.63 1184.28 787.32"/><polygon class="cls-108" points="1184.28 790 1082.1 883.38 1080.76 881.92 1184.28 787.32 1184.28 790"/><polygon class="cls-109" points="1184.28 792.68 1084.11 884.23 1082.88 884.23 1082.1 883.38 1184.28 790 1184.28 792.68"/><polygon class="cls-110" points="1184.28 795.37 1087.04 884.23 1084.11 884.23 1184.28 792.68 1184.28 795.37"/><polygon class="cls-111" points="1184.28 798.05 1089.98 884.23 1087.04 884.23 1184.28 795.37 1184.28 798.05"/><polygon class="cls-112" points="1184.28 800.74 1092.91 884.23 1089.98 884.23 1184.28 798.05 1184.28 800.74"/><polygon class="cls-113" points="1184.28 803.42 1095.85 884.23 1092.91 884.23 1184.28 800.74 1184.28 803.42"/><polygon class="cls-114" points="1184.28 806.1 1098.79 884.23 1095.85 884.23 1184.28 803.42 1184.28 806.1"/><polygon class="cls-115" points="1184.28 808.78 1101.72 884.23 1098.79 884.23 1184.28 806.1 1184.28 808.78"/><polygon class="cls-116" points="1184.28 811.47 1104.66 884.23 1101.72 884.23 1184.28 808.78 1184.28 811.47"/><polygon class="cls-117" points="1184.28 814.15 1107.6 884.23 1104.66 884.23 1184.28 811.47 1184.28 814.15"/><polygon class="cls-118" points="1184.28 816.83 1110.53 884.23 1107.6 884.23 1184.28 814.15 1184.28 816.83"/><polygon class="cls-118" points="1110.53 884.23 1184.28 816.83 1184.28 884.23 1110.53 884.23"/><polygon class="cls-119" points="857.53 710.25 856.35 711.34 856.35 710.25 857.53 710.25"/><polygon class="cls-120" points="860.47 710.25 856.35 714.02 856.35 711.34 857.53 710.25 860.47 710.25"/><polygon class="cls-121" points="863.41 710.25 856.35 716.7 856.35 714.02 860.47 710.25 863.41 710.25"/><polygon class="cls-122" points="866.34 710.25 856.35 719.38 856.35 716.7 863.41 710.25 866.34 710.25"/><polygon class="cls-123" points="869.28 710.25 856.35 722.07 856.35 719.38 866.34 710.25 869.28 710.25"/><polygon class="cls-124" points="872.22 710.25 856.35 724.75 856.35 722.07 869.28 710.25 872.22 710.25"/><polygon class="cls-125" points="875.15 710.25 856.35 727.43 856.35 724.75 872.22 710.25 875.15 710.25"/><polygon class="cls-126" points="878.09 710.25 856.35 730.12 856.35 727.43 875.15 710.25 878.09 710.25"/><polygon class="cls-127" points="881.02 710.25 856.35 732.8 856.35 730.12 878.09 710.25 881.02 710.25"/><polygon class="cls-128" points="883.96 710.25 856.35 735.48 856.35 732.8 881.02 710.25 883.96 710.25"/><polygon class="cls-129" points="886.9 710.25 856.35 738.17 856.35 735.48 883.96 710.25 886.9 710.25"/><polygon class="cls-130" points="889.83 710.25 856.35 740.85 856.35 738.17 886.9 710.25 889.83 710.25"/><polygon class="cls-131" points="892.77 710.25 856.35 743.53 856.35 740.85 889.83 710.25 892.77 710.25"/><polygon class="cls-132" points="895.71 710.25 856.35 746.22 856.35 743.53 892.77 710.25 895.71 710.25"/><polygon class="cls-133" points="898.64 710.25 856.35 748.9 856.35 746.22 895.71 710.25 898.64 710.25"/><polygon class="cls-134" points="901.58 710.25 856.35 751.58 856.35 748.9 898.64 710.25 901.58 710.25"/><polygon class="cls-135" points="904.51 710.25 856.35 754.27 856.35 751.58 901.58 710.25 904.51 710.25"/><polygon class="cls-136" points="907.45 710.25 856.35 756.95 856.35 754.27 904.51 710.25 907.45 710.25"/><polygon class="cls-137" points="910.39 710.25 856.35 759.63 856.35 756.95 907.45 710.25 910.39 710.25"/><polygon class="cls-138" points="913.32 710.25 856.35 762.32 856.35 759.63 910.39 710.25 913.32 710.25"/><polygon class="cls-139" points="916.26 710.25 856.35 765 856.35 762.32 913.32 710.25 916.26 710.25"/><polygon class="cls-140" points="919.2 710.25 856.35 767.68 856.35 765 916.26 710.25 919.2 710.25"/><polygon class="cls-141" points="922.13 710.25 856.35 770.37 856.35 767.68 919.2 710.25 922.13 710.25"/><polygon class="cls-142" points="925.07 710.25 856.35 773.05 856.35 770.37 922.13 710.25 925.07 710.25"/><polygon class="cls-143" points="928 710.25 856.35 775.73 856.35 773.05 925.07 710.25 928 710.25"/><polygon class="cls-144" points="930.94 710.25 856.35 778.42 856.35 775.73 928 710.25 930.94 710.25"/><polygon class="cls-145" points="933.88 710.25 856.35 781.1 856.35 778.42 930.94 710.25 933.88 710.25"/><polygon class="cls-146" points="936.81 710.25 856.35 783.78 856.35 781.1 933.88 710.25 936.81 710.25"/><polygon class="cls-147" points="939.75 710.25 856.35 786.47 856.35 783.78 936.81 710.25 939.75 710.25"/><polygon class="cls-148" points="942.69 710.25 856.35 789.15 856.35 786.47 939.75 710.25 942.69 710.25"/><polygon class="cls-149" points="945.62 710.25 856.35 791.83 856.35 789.15 942.69 710.25 945.62 710.25"/><polygon class="cls-150" points="948.56 710.25 856.35 794.52 856.35 791.83 945.62 710.25 948.56 710.25"/><polygon class="cls-151" points="951.5 710.25 856.35 797.2 856.35 794.52 948.56 710.25 951.5 710.25"/><polygon class="cls-152" points="954.43 710.25 856.35 799.88 856.35 797.2 951.5 710.25 954.43 710.25"/><polygon class="cls-153" points="957.37 710.25 856.35 802.57 856.35 799.88 954.43 710.25 957.37 710.25"/><polygon class="cls-154" points="960.3 710.25 856.35 805.25 856.35 802.57 957.37 710.25 960.3 710.25"/><polygon class="cls-3" points="963.24 710.25 856.35 807.93 856.35 805.25 960.3 710.25 963.24 710.25"/><polygon class="cls-4" points="966.18 710.25 856.35 810.62 856.35 807.93 963.24 710.25 966.18 710.25"/><polygon class="cls-5" points="969.11 710.25 856.35 813.3 856.35 810.62 966.18 710.25 969.11 710.25"/><polygon class="cls-6" points="972.05 710.25 856.35 815.98 856.35 813.3 969.11 710.25 972.05 710.25"/><polygon class="cls-7" points="974.99 710.25 856.35 818.67 856.35 815.98 972.05 710.25 974.99 710.25"/><polygon class="cls-8" points="977.92 710.25 856.35 821.35 856.35 818.67 974.99 710.25 977.92 710.25"/><polygon class="cls-9" points="980.86 710.25 856.35 824.03 856.35 821.35 977.92 710.25 980.86 710.25"/><polygon class="cls-10" points="982.93 710.25 983.32 710.69 856.35 826.72 856.35 824.03 980.86 710.25 982.93 710.25"/><polygon class="cls-11" points="983.32 710.69 984.66 712.15 856.35 829.4 856.35 826.72 983.32 710.69"/><polygon class="cls-12" points="984.66 712.15 985.99 713.61 856.35 832.08 856.35 829.4 984.66 712.15"/><polygon class="cls-13" points="985.99 713.61 987.33 715.07 856.35 834.77 856.35 832.08 985.99 713.61"/><polygon class="cls-14" points="987.33 715.07 988.67 716.53 856.35 837.45 856.35 834.77 987.33 715.07"/><polygon class="cls-15" points="988.67 716.53 990 718 856.35 840.13 856.35 837.45 988.67 716.53"/><polygon class="cls-16" points="990 718 991.34 719.46 856.35 842.82 856.35 840.13 990 718"/><polygon class="cls-17" points="991.34 719.46 992.67 720.92 856.35 845.5 856.35 842.82 991.34 719.46"/><polygon class="cls-18" points="992.67 720.92 994.01 722.38 856.35 848.18 856.35 845.5 992.67 720.92"/><polygon class="cls-19" points="994.01 722.38 995.35 723.85 856.35 850.87 856.35 848.18 994.01 722.38"/><polygon class="cls-20" points="995.35 723.85 996.68 725.31 856.35 853.55 856.35 850.87 995.35 723.85"/><polygon class="cls-21" points="996.68 725.31 998.02 726.77 856.35 856.23 856.35 853.55 996.68 725.31"/><polygon class="cls-22" points="998.02 726.77 999.36 728.23 856.35 858.91 856.35 856.23 998.02 726.77"/><polygon class="cls-23" points="999.36 728.23 1000.69 729.69 856.35 861.6 856.35 858.91 999.36 728.23"/><polygon class="cls-24" points="1000.69 729.69 1002.03 731.16 856.35 864.28 856.35 861.6 1000.69 729.69"/><polygon class="cls-25" points="1002.03 731.16 1003.37 732.62 856.35 866.97 856.35 864.28 1002.03 731.16"/><polygon class="cls-26" points="1003.37 732.62 1004.7 734.08 856.35 869.65 856.35 866.97 1003.37 732.62"/><polygon class="cls-27" points="1004.7 734.08 1006.04 735.54 856.35 872.33 856.35 869.65 1004.7 734.08"/><polygon class="cls-28" points="1006.04 735.54 1007.37 737 856.35 875.01 856.35 872.33 1006.04 735.54"/><polygon class="cls-29" points="1007.37 737 1008.71 738.47 856.35 877.7 856.35 875.01 1007.37 737"/><polygon class="cls-30" points="1008.71 738.47 1010.05 739.93 857.44 879.39 856.35 878.19 856.35 877.7 1008.71 738.47"/><rect class="cls-31" x="831.05" y="809.4" width="206.73" height="1.98" transform="translate(-302.04 842.51) rotate(-42.42)"/><rect class="cls-32" x="832.38" y="810.86" width="206.73" height="1.98" transform="translate(-302.68 843.8) rotate(-42.42)"/><rect class="cls-33" x="833.72" y="812.32" width="206.73" height="1.98" transform="translate(-303.32 845.08) rotate(-42.42)"/><rect class="cls-34" x="835.06" y="813.79" width="206.73" height="1.98" transform="translate(-303.95 846.37) rotate(-42.42)"/><rect class="cls-35" x="836.39" y="815.25" width="206.73" height="1.98" transform="translate(-304.59 847.65) rotate(-42.42)"/><rect class="cls-36" x="837.73" y="816.71" width="206.73" height="1.98" transform="translate(-305.23 848.94) rotate(-42.42)"/><rect class="cls-37" x="839.07" y="818.17" width="206.73" height="1.98" transform="translate(-305.86 850.22) rotate(-42.42)"/><rect class="cls-38" x="840.4" y="819.63" width="206.73" height="1.98" transform="translate(-306.5 851.5) rotate(-42.42)"/><rect class="cls-39" x="841.74" y="821.1" width="206.73" height="1.98" transform="translate(-307.14 852.79) rotate(-42.42)"/><rect class="cls-40" x="843.07" y="822.56" width="206.73" height="1.98" transform="translate(-307.77 854.07) rotate(-42.42)"/><rect class="cls-41" x="844.41" y="824.02" width="206.73" height="1.98" transform="translate(-308.41 855.36) rotate(-42.42)"/><rect class="cls-42" x="845.75" y="825.48" width="206.73" height="1.98" transform="translate(-309.05 856.64) rotate(-42.42)"/><rect class="cls-43" x="847.08" y="826.94" width="206.73" height="1.98" transform="translate(-309.68 857.93) rotate(-42.42)"/><rect class="cls-44" x="848.42" y="828.41" width="206.73" height="1.98" transform="translate(-310.32 859.21) rotate(-42.42)"/><rect class="cls-45" x="849.76" y="829.87" width="206.73" height="1.98" transform="translate(-310.96 860.49) rotate(-42.42)"/><rect class="cls-46" x="851.09" y="831.33" width="206.73" height="1.98" transform="translate(-311.59 861.78) rotate(-42.42)"/><rect class="cls-47" x="852.43" y="832.79" width="206.73" height="1.98" transform="translate(-312.23 863.06) rotate(-42.42)"/><rect class="cls-48" x="853.76" y="834.26" width="206.73" height="1.98" transform="translate(-312.87 864.35) rotate(-42.42)"/><rect class="cls-49" x="855.1" y="835.72" width="206.73" height="1.98" transform="translate(-313.5 865.63) rotate(-42.42)"/><rect class="cls-50" x="856.44" y="837.18" width="206.73" height="1.98" transform="translate(-314.14 866.91) rotate(-42.42)"/><rect class="cls-51" x="857.77" y="838.64" width="206.73" height="1.98" transform="translate(-314.78 868.2) rotate(-42.42)"/><rect class="cls-52" x="859.11" y="840.1" width="206.73" height="1.98" transform="translate(-315.41 869.48) rotate(-42.42)"/><rect class="cls-53" x="860.44" y="841.57" width="206.73" height="1.98" transform="translate(-316.05 870.77) rotate(-42.42)"/><rect class="cls-54" x="861.78" y="843.03" width="206.73" height="1.98" transform="translate(-316.68 872.05) rotate(-42.42)"/><rect class="cls-55" x="863.12" y="844.49" width="206.73" height="1.98" transform="translate(-317.32 873.34) rotate(-42.42)"/><rect class="cls-56" x="864.45" y="845.95" width="206.73" height="1.98" transform="translate(-317.96 874.62) rotate(-42.42)"/><rect class="cls-57" x="865.79" y="847.42" width="206.73" height="1.98" transform="translate(-318.59 875.9) rotate(-42.42)"/><rect class="cls-58" x="867.13" y="848.88" width="206.73" height="1.98" transform="translate(-319.23 877.19) rotate(-42.42)"/><rect class="cls-59" x="868.46" y="850.34" width="206.73" height="1.98" transform="translate(-319.87 878.47) rotate(-42.42)"/><rect class="cls-60" x="869.8" y="851.8" width="206.73" height="1.98" transform="translate(-320.5 879.76) rotate(-42.42)"/><rect class="cls-61" x="871.13" y="853.26" width="206.73" height="1.98" transform="translate(-321.14 881.04) rotate(-42.42)"/><rect class="cls-62" x="872.47" y="854.73" width="206.73" height="1.98" transform="translate(-321.78 882.33) rotate(-42.42)"/><rect class="cls-63" x="873.81" y="856.19" width="206.73" height="1.98" transform="translate(-322.41 883.61) rotate(-42.42)"/><rect class="cls-64" x="875.14" y="857.65" width="206.73" height="1.98" transform="translate(-323.05 884.89) rotate(-42.42)"/><rect class="cls-65" x="876.48" y="859.11" width="206.73" height="1.98" transform="translate(-323.69 886.18) rotate(-42.42)"/><rect class="cls-66" x="877.82" y="860.58" width="206.73" height="1.98" transform="translate(-324.32 887.46) rotate(-42.42)"/><rect class="cls-67" x="879.15" y="862.04" width="206.73" height="1.98" transform="translate(-324.96 888.75) rotate(-42.42)"/><rect class="cls-68" x="880.49" y="863.5" width="206.73" height="1.98" transform="translate(-325.6 890.03) rotate(-42.42)"/><rect class="cls-69" x="881.82" y="864.96" width="206.73" height="1.98" transform="translate(-326.23 891.31) rotate(-42.42)"/><rect class="cls-70" x="883.16" y="866.42" width="206.73" height="1.98" transform="translate(-326.87 892.6) rotate(-42.42)"/><rect class="cls-71" x="884.5" y="867.89" width="206.73" height="1.98" transform="translate(-327.51 893.88) rotate(-42.42)"/><rect class="cls-72" x="885.83" y="869.35" width="206.73" height="1.98" transform="translate(-328.14 895.17) rotate(-42.42)"/><polygon class="cls-73" points="1066.17 801.34 1067.5 802.8 915.12 942.06 914.72 942.06 913.56 940.8 1066.17 801.34"/><polygon class="cls-74" points="1067.5 802.8 1068.84 804.27 918.05 942.06 915.12 942.06 1067.5 802.8"/><polygon class="cls-75" points="1068.84 804.27 1070.18 805.73 920.99 942.06 918.05 942.06 1068.84 804.27"/><polygon class="cls-76" points="1070.18 805.73 1071.51 807.19 923.93 942.06 920.99 942.06 1070.18 805.73"/><polygon class="cls-77" points="1071.51 807.19 1072.85 808.65 926.86 942.06 923.93 942.06 1071.51 807.19"/><polygon class="cls-78" points="1072.85 808.65 1074.18 810.12 929.8 942.06 926.86 942.06 1072.85 808.65"/><polygon class="cls-79" points="1074.18 810.12 1075.11 811.13 1075.11 811.95 932.74 942.06 929.8 942.06 1074.18 810.12"/><polygon class="cls-80" points="1075.11 814.64 935.67 942.06 932.74 942.06 1075.11 811.95 1075.11 814.64"/><polygon class="cls-81" points="1075.11 817.32 938.61 942.06 935.67 942.06 1075.11 814.64 1075.11 817.32"/><polygon class="cls-82" points="1075.11 820 941.54 942.06 938.61 942.06 1075.11 817.32 1075.11 820"/><polygon class="cls-83" points="1075.11 822.69 944.48 942.06 941.54 942.06 1075.11 820 1075.11 822.69"/><polygon class="cls-84" points="1075.11 825.37 947.42 942.06 944.48 942.06 1075.11 822.69 1075.11 825.37"/><polygon class="cls-85" points="1075.11 828.05 950.35 942.06 947.42 942.06 1075.11 825.37 1075.11 828.05"/><polygon class="cls-86" points="1075.11 830.74 953.29 942.06 950.35 942.06 1075.11 828.05 1075.11 830.74"/><polygon class="cls-87" points="1075.11 833.42 956.23 942.06 953.29 942.06 1075.11 830.74 1075.11 833.42"/><polygon class="cls-88" points="1075.11 836.1 959.16 942.06 956.23 942.06 1075.11 833.42 1075.11 836.1"/><polygon class="cls-89" points="1075.11 838.79 962.1 942.06 959.16 942.06 1075.11 836.1 1075.11 838.79"/><polygon class="cls-90" points="1075.11 841.47 965.03 942.06 962.1 942.06 1075.11 838.79 1075.11 841.47"/><polygon class="cls-91" points="1075.11 844.15 967.97 942.06 965.03 942.06 1075.11 841.47 1075.11 844.15"/><polygon class="cls-92" points="1075.11 846.84 970.91 942.06 967.97 942.06 1075.11 844.15 1075.11 846.84"/><polygon class="cls-93" points="1075.11 849.52 973.84 942.06 970.91 942.06 1075.11 846.84 1075.11 849.52"/><polygon class="cls-94" points="1075.11 852.2 976.78 942.06 973.84 942.06 1075.11 849.52 1075.11 852.2"/><polygon class="cls-95" points="1075.11 854.89 979.72 942.06 976.78 942.06 1075.11 852.2 1075.11 854.89"/><polygon class="cls-96" points="1075.11 857.57 982.65 942.06 979.72 942.06 1075.11 854.89 1075.11 857.57"/><polygon class="cls-97" points="1075.11 860.25 985.59 942.06 982.65 942.06 1075.11 857.57 1075.11 860.25"/><polygon class="cls-98" points="1075.11 862.93 988.52 942.06 985.59 942.06 1075.11 860.25 1075.11 862.93"/><polygon class="cls-99" points="1075.11 865.62 991.46 942.06 988.52 942.06 1075.11 862.93 1075.11 865.62"/><polygon class="cls-100" points="1075.11 868.3 994.4 942.06 991.46 942.06 1075.11 865.62 1075.11 868.3"/><polygon class="cls-101" points="1075.11 870.99 997.33 942.06 994.4 942.06 1075.11 868.3 1075.11 870.99"/><polygon class="cls-102" points="1075.11 873.67 1000.27 942.06 997.33 942.06 1075.11 870.99 1075.11 873.67"/><polygon class="cls-103" points="1075.11 876.35 1003.21 942.06 1000.27 942.06 1075.11 873.67 1075.11 876.35"/><polygon class="cls-104" points="1075.11 879.03 1006.14 942.06 1003.21 942.06 1075.11 876.35 1075.11 879.03"/><polygon class="cls-105" points="1075.11 881.72 1009.08 942.06 1006.14 942.06 1075.11 879.03 1075.11 881.72"/><polygon class="cls-106" points="1075.11 884.4 1012.01 942.06 1009.08 942.06 1075.11 881.72 1075.11 884.4"/><polygon class="cls-107" points="1075.11 887.09 1014.95 942.06 1012.01 942.06 1075.11 884.4 1075.11 887.09"/><polygon class="cls-108" points="1075.11 889.77 1017.89 942.06 1014.95 942.06 1075.11 887.09 1075.11 889.77"/><polygon class="cls-109" points="1075.11 892.45 1020.82 942.06 1017.89 942.06 1075.11 889.77 1075.11 892.45"/><polygon class="cls-110" points="1075.11 895.13 1023.76 942.06 1020.82 942.06 1075.11 892.45 1075.11 895.13"/><polygon class="cls-111" points="1075.11 897.82 1026.7 942.06 1023.76 942.06 1075.11 895.13 1075.11 897.82"/><polygon class="cls-112" points="1075.11 900.5 1029.63 942.06 1026.7 942.06 1075.11 897.82 1075.11 900.5"/><polygon class="cls-113" points="1075.11 903.18 1032.57 942.06 1029.63 942.06 1075.11 900.5 1075.11 903.18"/><polygon class="cls-114" points="1075.11 905.87 1035.51 942.06 1032.57 942.06 1075.11 903.18 1075.11 905.87"/><polygon class="cls-115" points="1075.11 908.55 1038.44 942.06 1035.51 942.06 1075.11 905.87 1075.11 908.55"/><polygon class="cls-116" points="1075.11 911.24 1041.38 942.06 1038.44 942.06 1075.11 908.55 1075.11 911.24"/><polygon class="cls-117" points="1075.11 913.92 1044.31 942.06 1041.38 942.06 1075.11 911.24 1075.11 913.92"/><polygon class="cls-118" points="1075.11 916.6 1047.25 942.06 1044.31 942.06 1075.11 913.92 1075.11 916.6"/><polygon class="cls-118" points="1047.25 942.06 1075.11 916.6 1075.11 942.06 1047.25 942.06"/><polygon class="cls-155" points="843.21 689.45 841.4 691.1 841.4 689.45 843.21 689.45"/><polygon class="cls-156" points="856.81 689.45 841.4 703.53 841.4 691.1 843.21 689.45 856.81 689.45"/><polygon class="cls-156" points="859.75 689.45 841.4 706.22 841.4 703.53 856.81 689.45 859.75 689.45"/><polygon class="cls-157" points="862.68 689.45 841.4 708.9 841.4 706.22 859.75 689.45 862.68 689.45"/><polygon class="cls-158" points="865.62 689.45 841.4 711.58 841.4 708.9 862.68 689.45 865.62 689.45"/><polygon class="cls-159" points="868.56 689.45 841.4 714.26 841.4 711.58 865.62 689.45 868.56 689.45"/><polygon class="cls-160" points="871.49 689.45 841.4 716.95 841.4 714.26 868.56 689.45 871.49 689.45"/><polygon class="cls-161" points="874.43 689.45 841.4 719.63 841.4 716.95 871.49 689.45 874.43 689.45"/><polygon class="cls-162" points="877.37 689.45 841.4 722.32 841.4 719.63 874.43 689.45 877.37 689.45"/><polygon class="cls-119" points="880.3 689.45 841.4 725 841.4 722.32 877.37 689.45 880.3 689.45"/><polygon class="cls-120" points="883.24 689.45 841.4 727.68 841.4 725 880.3 689.45 883.24 689.45"/><polygon class="cls-121" points="886.17 689.45 841.4 730.36 841.4 727.68 883.24 689.45 886.17 689.45"/><polygon class="cls-122" points="889.11 689.45 841.4 733.05 841.4 730.36 886.17 689.45 889.11 689.45"/><polygon class="cls-123" points="892.05 689.45 841.4 735.73 841.4 733.05 889.11 689.45 892.05 689.45"/><polygon class="cls-124" points="894.98 689.45 841.4 738.41 841.4 735.73 892.05 689.45 894.98 689.45"/><polygon class="cls-125" points="897.92 689.45 841.4 741.1 841.4 738.41 894.98 689.45 897.92 689.45"/><polygon class="cls-126" points="900.86 689.45 841.4 743.78 841.4 741.1 897.92 689.45 900.86 689.45"/><polygon class="cls-127" points="903.79 689.45 841.4 746.46 841.4 743.78 900.86 689.45 903.79 689.45"/><polygon class="cls-128" points="906.73 689.45 841.4 749.15 841.4 746.46 903.79 689.45 906.73 689.45"/><polygon class="cls-129" points="909.66 689.45 841.4 751.83 841.4 749.15 906.73 689.45 909.66 689.45"/><polygon class="cls-130" points="912.6 689.45 841.4 754.51 841.4 751.83 909.66 689.45 912.6 689.45"/><polygon class="cls-131" points="915.54 689.45 841.4 757.2 841.4 754.51 912.6 689.45 915.54 689.45"/><polygon class="cls-132" points="918.47 689.45 841.4 759.88 841.4 757.2 915.54 689.45 918.47 689.45"/><polygon class="cls-133" points="921.41 689.45 841.4 762.56 841.4 759.88 918.47 689.45 921.41 689.45"/><polygon class="cls-134" points="924.35 689.45 841.4 765.25 841.4 762.56 921.41 689.45 924.35 689.45"/><polygon class="cls-135" points="927.28 689.45 841.4 767.93 841.4 765.25 924.35 689.45 927.28 689.45"/><polygon class="cls-136" points="930.22 689.45 841.4 770.61 841.4 767.93 927.28 689.45 930.22 689.45"/><polygon class="cls-137" points="933.15 689.45 841.4 773.3 841.4 770.61 930.22 689.45 933.15 689.45"/><polygon class="cls-138" points="936.09 689.45 841.4 775.98 841.4 773.3 933.15 689.45 936.09 689.45"/><polygon class="cls-139" points="939.03 689.45 841.4 778.66 841.4 775.98 936.09 689.45 939.03 689.45"/><polygon class="cls-140" points="941.96 689.45 841.4 781.35 841.4 778.66 939.03 689.45 941.96 689.45"/><polygon class="cls-141" points="944.9 689.45 841.4 784.03 841.4 781.35 941.96 689.45 944.9 689.45"/><polygon class="cls-142" points="947.84 689.45 841.4 786.71 841.4 784.03 944.9 689.45 947.84 689.45"/><polygon class="cls-143" points="950.77 689.45 841.4 789.4 841.4 786.71 947.84 689.45 950.77 689.45"/><polygon class="cls-144" points="953.71 689.45 841.4 792.08 841.4 789.4 950.77 689.45 953.71 689.45"/><polygon class="cls-145" points="956.64 689.45 841.4 794.76 841.4 792.08 953.71 689.45 956.64 689.45"/><polygon class="cls-146" points="959.58 689.45 841.4 797.45 841.4 794.76 956.64 689.45 959.58 689.45"/><polygon class="cls-147" points="962.52 689.45 841.4 800.13 841.4 797.45 959.58 689.45 962.52 689.45"/><polygon class="cls-148" points="963.74 691.02 841.4 802.81 841.4 800.13 962.52 689.45 963.74 689.45 963.74 691.02"/><polygon class="cls-149" points="963.74 693.7 841.4 805.5 841.4 802.81 963.74 691.02 963.74 693.7"/><polygon class="cls-150" points="963.74 696.38 841.4 808.18 841.4 805.5 963.74 693.7 963.74 696.38"/><polygon class="cls-151" points="963.74 699.07 842.11 810.22 841.4 810.22 841.4 808.18 963.74 696.38 963.74 699.07"/><polygon class="cls-152" points="963.74 701.75 845.04 810.22 842.11 810.22 963.74 699.07 963.74 701.75"/><polygon class="cls-153" points="963.74 704.43 847.98 810.22 845.04 810.22 963.74 701.75 963.74 704.43"/><polygon class="cls-154" points="963.74 707.12 850.92 810.22 847.98 810.22 963.74 704.43 963.74 707.12"/><polygon class="cls-3" points="963.74 709.8 853.85 810.22 850.92 810.22 963.74 707.12 963.74 709.8"/><polygon class="cls-4" points="963.74 712.49 856.79 810.22 853.85 810.22 963.74 709.8 963.74 712.49"/><polygon class="cls-5" points="963.74 715.17 859.73 810.22 856.79 810.22 963.74 712.49 963.74 715.17"/><polygon class="cls-6" points="963.74 717.85 862.66 810.22 859.73 810.22 963.74 715.17 963.74 717.85"/><polygon class="cls-7" points="963.74 720.53 865.6 810.22 862.66 810.22 963.74 717.85 963.74 720.53"/><polygon class="cls-8" points="963.74 723.22 868.53 810.22 865.6 810.22 963.74 720.53 963.74 723.22"/><polygon class="cls-9" points="963.74 725.9 871.47 810.22 868.53 810.22 963.74 723.22 963.74 725.9"/><polygon class="cls-10" points="963.74 728.58 874.41 810.22 871.47 810.22 963.74 725.9 963.74 728.58"/><polygon class="cls-11" points="963.74 731.27 877.34 810.22 874.41 810.22 963.74 728.58 963.74 731.27"/><polygon class="cls-12" points="963.74 733.95 880.28 810.22 877.34 810.22 963.74 731.27 963.74 733.95"/><polygon class="cls-13" points="963.74 736.63 883.22 810.22 880.28 810.22 963.74 733.95 963.74 736.63"/><polygon class="cls-14" points="963.74 739.32 886.15 810.22 883.22 810.22 963.74 736.63 963.74 739.32"/><polygon class="cls-15" points="963.74 742 889.09 810.22 886.15 810.22 963.74 739.32 963.74 742"/><polygon class="cls-16" points="963.74 744.68 892.02 810.22 889.09 810.22 963.74 742 963.74 744.68"/><polygon class="cls-17" points="963.74 747.37 894.96 810.22 892.02 810.22 963.74 744.68 963.74 747.37"/><polygon class="cls-18" points="963.74 750.05 897.9 810.22 894.96 810.22 963.74 747.37 963.74 750.05"/><polygon class="cls-19" points="963.74 752.73 900.83 810.22 897.9 810.22 963.74 750.05 963.74 752.73"/><polygon class="cls-20" points="963.74 755.42 903.77 810.22 900.83 810.22 963.74 752.73 963.74 755.42"/><polygon class="cls-21" points="963.74 758.1 906.71 810.22 903.77 810.22 963.74 755.42 963.74 758.1"/><polygon class="cls-22" points="963.74 760.78 909.64 810.22 906.71 810.22 963.74 758.1 963.74 760.78"/><polygon class="cls-23" points="963.74 763.47 912.58 810.22 909.64 810.22 963.74 760.78 963.74 763.47"/><polygon class="cls-24" points="963.74 766.15 915.51 810.22 912.58 810.22 963.74 763.47 963.74 766.15"/><polygon class="cls-25" points="963.74 768.83 918.45 810.22 915.51 810.22 963.74 766.15 963.74 768.83"/><polygon class="cls-26" points="963.74 771.52 921.39 810.22 918.45 810.22 963.74 768.83 963.74 771.52"/><polygon class="cls-27" points="963.74 774.2 924.32 810.22 921.39 810.22 963.74 771.52 963.74 774.2"/><polygon class="cls-28" points="963.74 776.88 927.26 810.22 924.32 810.22 963.74 774.2 963.74 776.88"/><polygon class="cls-29" points="963.74 779.57 930.2 810.22 927.26 810.22 963.74 776.88 963.74 779.57"/><polygon class="cls-30" points="963.74 782.25 933.13 810.22 930.2 810.22 963.74 779.57 963.74 782.25"/><polygon class="cls-31" points="963.74 784.93 936.07 810.22 933.13 810.22 963.74 782.25 963.74 784.93"/><polygon class="cls-32" points="963.74 787.62 939 810.22 936.07 810.22 963.74 784.93 963.74 787.62"/><polygon class="cls-33" points="963.74 790.3 941.94 810.22 939 810.22 963.74 787.62 963.74 790.3"/><polygon class="cls-34" points="963.74 792.98 944.88 810.22 941.94 810.22 963.74 790.3 963.74 792.98"/><polygon class="cls-35" points="963.74 795.67 947.81 810.22 944.88 810.22 963.74 792.98 963.74 795.67"/><polygon class="cls-36" points="963.74 798.35 950.75 810.22 947.81 810.22 963.74 795.67 963.74 798.35"/><polygon class="cls-37" points="963.74 801.03 953.68 810.22 950.75 810.22 963.74 798.35 963.74 801.03"/><polygon class="cls-38" points="963.74 803.72 956.62 810.22 953.68 810.22 963.74 801.03 963.74 803.72"/><polygon class="cls-39" points="963.74 806.4 959.56 810.22 956.62 810.22 963.74 803.72 963.74 806.4"/><polygon class="cls-40" points="963.74 809.08 962.49 810.22 959.56 810.22 963.74 806.4 963.74 809.08"/><polygon class="cls-41" points="962.49 810.22 963.74 809.08 963.74 810.22 962.49 810.22"/><polygon class="cls-163" points="933.09 209.65 930.25 212.24 930.25 209.65 933.09 209.65"/><polygon class="cls-164" points="946.69 209.65 930.25 224.67 930.25 212.24 933.09 209.65 946.69 209.65"/><polygon class="cls-165" points="960.29 209.65 930.25 237.1 930.25 224.67 946.69 209.65 960.29 209.65"/><polygon class="cls-166" points="973.89 209.65 930.25 249.52 930.25 237.1 960.29 209.65 973.89 209.65"/><polygon class="cls-167" points="987.49 209.65 930.25 261.95 930.25 249.52 973.89 209.65 987.49 209.65"/><polygon class="cls-168" points="1001.09 209.65 930.25 274.38 930.25 261.95 987.49 209.65 1001.09 209.65"/><polygon class="cls-169" points="1014.68 209.65 930.25 286.8 930.25 274.38 1001.09 209.65 1014.68 209.65"/><polygon class="cls-170" points="1028.28 209.65 930.25 299.23 930.25 286.8 1014.68 209.65 1028.28 209.65"/><polygon class="cls-171" points="1041.88 209.65 930.25 311.66 930.25 299.23 1028.28 209.65 1041.88 209.65"/><polygon class="cls-172" points="1055.48 209.65 930.25 324.08 930.25 311.66 1041.88 209.65 1055.48 209.65"/><polygon class="cls-173" points="1069.08 209.65 930.25 336.51 930.25 324.08 1055.48 209.65 1069.08 209.65"/><polygon class="cls-174" points="1082.68 209.65 930.25 348.94 930.25 336.51 1069.08 209.65 1082.68 209.65"/><polygon class="cls-175" points="1096.28 209.65 930.25 361.37 930.25 348.94 1082.68 209.65 1096.28 209.65"/><polygon class="cls-176" points="1109.88 209.65 930.25 373.79 930.25 361.37 1096.28 209.65 1109.88 209.65"/><polygon class="cls-177" points="1113.08 209.65 1117.81 214.82 930.25 386.22 930.25 373.79 1109.88 209.65 1113.08 209.65"/><polygon class="cls-178" points="1117.81 214.82 1124 221.6 930.25 398.65 930.25 386.22 1117.81 214.82"/><polygon class="cls-179" points="1124 221.6 1130.18 228.37 930.25 411.07 930.25 398.65 1124 221.6"/><polygon class="cls-180" points="1130.18 228.37 1136.37 235.14 932.51 421.44 930.25 421.44 930.25 411.07 1130.18 228.37"/><polygon class="cls-181" points="1136.37 235.14 1142.56 241.91 946.11 421.44 932.51 421.44 1136.37 235.14"/><polygon class="cls-182" points="1142.56 241.91 1148.75 248.68 959.71 421.44 946.11 421.44 1142.56 241.91"/><polygon class="cls-183" points="1148.75 248.68 1154.94 255.46 973.31 421.44 959.71 421.44 1148.75 248.68"/><polygon class="cls-184" points="1154.94 255.46 1161.13 262.23 986.9 421.44 973.31 421.44 1154.94 255.46"/><polygon class="cls-185" points="1161.13 262.23 1167.31 269 1000.5 421.44 986.9 421.44 1161.13 262.23"/><polygon class="cls-186" points="1167.31 269 1173.5 275.77 1014.1 421.44 1000.5 421.44 1167.31 269"/><polygon class="cls-187" points="1173.5 275.77 1173.77 276.06 1173.77 287.96 1027.7 421.44 1014.1 421.44 1173.5 275.77"/><polygon class="cls-188" points="1173.77 300.38 1041.3 421.44 1027.7 421.44 1173.77 287.96 1173.77 300.38"/><polygon class="cls-189" points="1173.77 312.81 1054.9 421.44 1041.3 421.44 1173.77 300.38 1173.77 312.81"/><polygon class="cls-190" points="1173.77 325.24 1068.5 421.44 1054.9 421.44 1173.77 312.81 1173.77 325.24"/><polygon class="cls-191" points="1173.77 337.67 1082.1 421.44 1068.5 421.44 1173.77 325.24 1173.77 337.67"/><polygon class="cls-192" points="1173.77 350.09 1095.69 421.44 1082.1 421.44 1173.77 337.67 1173.77 350.09"/><polygon class="cls-193" points="1173.77 362.52 1109.29 421.44 1095.69 421.44 1173.77 350.09 1173.77 362.52"/><polygon class="cls-194" points="1173.77 374.95 1122.89 421.44 1109.29 421.44 1173.77 362.52 1173.77 374.95"/><polygon class="cls-155" points="1173.77 387.37 1136.49 421.44 1122.89 421.44 1173.77 374.95 1173.77 387.37"/><polygon class="cls-156" points="1173.77 399.8 1150.09 421.44 1136.49 421.44 1173.77 387.37 1173.77 399.8"/><polygon class="cls-156" points="1173.77 402.48 1153.03 421.44 1150.09 421.44 1173.77 399.8 1173.77 402.48"/><polygon class="cls-157" points="1173.77 405.17 1155.96 421.44 1153.03 421.44 1173.77 402.48 1173.77 405.17"/><polygon class="cls-158" points="1173.77 407.85 1158.9 421.44 1155.96 421.44 1173.77 405.17 1173.77 407.85"/><polygon class="cls-159" points="1173.77 410.53 1161.83 421.44 1158.9 421.44 1173.77 407.85 1173.77 410.53"/><polygon class="cls-160" points="1173.77 413.22 1164.77 421.44 1161.83 421.44 1173.77 410.53 1173.77 413.22"/><polygon class="cls-161" points="1173.77 415.9 1167.71 421.44 1164.77 421.44 1173.77 413.22 1173.77 415.9"/><polygon class="cls-162" points="1173.77 418.58 1170.64 421.44 1167.71 421.44 1173.77 415.9 1173.77 418.58"/><polygon class="cls-119" points="1173.77 421.27 1173.58 421.44 1170.64 421.44 1173.77 418.58 1173.77 421.27"/><polygon class="cls-120" points="1173.58 421.44 1173.77 421.27 1173.77 421.44 1173.58 421.44"/><polygon class="cls-195" points="850.84 123.26 626.78 328.01 626.78 123.26 850.84 123.26"/><polygon class="cls-195" points="864.44 123.26 626.78 340.44 626.78 328.01 850.84 123.26 864.44 123.26"/><polygon class="cls-196" points="878.03 123.26 626.78 352.87 626.78 340.44 864.44 123.26 878.03 123.26"/><polygon class="cls-197" points="891.63 123.26 626.78 365.29 626.78 352.87 878.03 123.26 891.63 123.26"/><polygon class="cls-198" points="905.23 123.26 626.78 377.72 626.78 365.29 891.63 123.26 905.23 123.26"/><polygon class="cls-199" points="918.83 123.26 626.78 390.15 626.78 377.72 905.23 123.26 918.83 123.26"/><polygon class="cls-200" points="932.43 123.26 626.78 402.58 626.78 390.15 918.83 123.26 932.43 123.26"/><polygon class="cls-201" points="946.03 123.26 626.78 415 626.78 402.58 932.43 123.26 946.03 123.26"/><polygon class="cls-202" points="959.63 123.26 626.78 427.43 626.78 415 946.03 123.26 959.63 123.26"/><polygon class="cls-203" points="973.23 123.26 626.78 439.86 626.78 427.43 959.63 123.26 973.23 123.26"/><polygon class="cls-204" points="986.82 123.26 626.78 452.28 626.78 439.86 973.23 123.26 986.82 123.26"/><polygon class="cls-205" points="1000.42 123.26 626.78 464.71 626.78 452.28 986.82 123.26 1000.42 123.26"/><polygon class="cls-206" points="1014.02 123.26 626.78 477.14 626.78 464.71 1000.42 123.26 1014.02 123.26"/><polygon class="cls-163" points="1027.62 123.26 626.78 489.56 626.78 477.14 1014.02 123.26 1027.62 123.26"/><polygon class="cls-164" points="1041.22 123.26 626.78 501.99 626.78 489.56 1027.62 123.26 1041.22 123.26"/><polygon class="cls-165" points="1054.82 123.26 626.78 514.42 626.78 501.99 1041.22 123.26 1054.82 123.26"/><polygon class="cls-166" points="1068.41 123.26 626.78 526.85 626.78 514.42 1054.82 123.26 1068.41 123.26"/><polygon class="cls-167" points="1082.01 123.26 626.78 539.27 626.78 526.85 1068.41 123.26 1082.01 123.26"/><polygon class="cls-168" points="1095.61 123.26 626.78 551.7 626.78 539.27 1082.01 123.26 1095.61 123.26"/><polygon class="cls-169" points="1109.21 123.26 626.78 564.13 626.78 551.7 1095.61 123.26 1109.21 123.26"/><polygon class="cls-170" points="1122.66 123.26 1122.73 123.34 626.78 576.55 626.78 564.13 1109.21 123.26 1122.66 123.26"/><polygon class="cls-171" points="1122.73 123.34 1128.92 130.11 626.78 588.98 626.78 576.55 1122.73 123.34"/><polygon class="cls-172" points="1128.92 130.11 1135.11 136.88 626.78 601.41 626.78 588.98 1128.92 130.11"/><polygon class="cls-173" points="1135.11 136.88 1141.3 143.65 626.78 613.84 626.78 601.41 1135.11 136.88"/><polygon class="cls-174" points="1141.3 143.65 1147.48 150.42 626.78 626.26 626.78 613.84 1141.3 143.65"/><polygon class="cls-175" points="1147.48 150.42 1153.67 157.2 626.78 638.69 626.78 626.26 1147.48 150.42"/><polygon class="cls-176" points="1153.67 157.2 1159.86 163.97 626.78 651.12 626.78 638.69 1153.67 157.2"/><polygon class="cls-177" points="1159.86 163.97 1166.05 170.74 631.47 659.26 626.78 654.13 626.78 651.12 1159.86 163.97"/><rect class="cls-178" x="539.77" y="413.8" width="724.17" height="9.17" transform="translate(-46.12 717.92) rotate(-42.42)"/><rect class="cls-179" x="545.96" y="420.57" width="724.17" height="9.17" transform="translate(-49.07 723.87) rotate(-42.42)"/><rect class="cls-180" x="552.15" y="427.34" width="724.17" height="9.17" transform="translate(-52.02 729.82) rotate(-42.42)"/><rect class="cls-181" x="558.34" y="434.11" width="724.17" height="9.17" transform="translate(-54.97 735.76) rotate(-42.42)"/><rect class="cls-182" x="564.52" y="440.89" width="724.17" height="9.17" transform="translate(-57.92 741.71) rotate(-42.42)"/><rect class="cls-183" x="570.71" y="447.66" width="724.17" height="9.17" transform="translate(-60.87 747.66) rotate(-42.42)"/><rect class="cls-184" x="576.9" y="454.43" width="724.17" height="9.17" transform="translate(-63.81 753.61) rotate(-42.42)"/><rect class="cls-185" x="583.09" y="461.2" width="724.17" height="9.17" transform="translate(-66.76 759.56) rotate(-42.42)"/><rect class="cls-186" x="589.28" y="467.97" width="724.17" height="9.17" transform="translate(-69.71 765.5) rotate(-42.42)"/><rect class="cls-187" x="595.47" y="474.74" width="724.17" height="9.17" transform="translate(-72.66 771.45) rotate(-42.42)"/><rect class="cls-188" x="601.65" y="481.52" width="724.17" height="9.17" transform="translate(-75.61 777.4) rotate(-42.42)"/><rect class="cls-189" x="607.84" y="488.29" width="724.17" height="9.17" transform="translate(-78.55 783.35) rotate(-42.42)"/><polygon class="cls-190" points="1240.31 252 1243.12 255.07 1243.12 261.86 711.92 747.29 705.74 740.52 1240.31 252"/><polygon class="cls-191" points="1243.12 274.29 718.11 754.06 711.92 747.29 1243.12 261.86 1243.12 274.29"/><polygon class="cls-192" points="1243.12 286.72 724.3 760.84 718.11 754.06 1243.12 274.29 1243.12 286.72"/><polygon class="cls-193" points="1243.12 299.14 730.49 767.61 724.3 760.84 1243.12 286.72 1243.12 299.14"/><polygon class="cls-194" points="1243.12 311.57 736.68 774.38 730.49 767.61 1243.12 299.14 1243.12 311.57"/><polygon class="cls-155" points="1243.12 324 742.87 781.15 736.68 774.38 1243.12 311.57 1243.12 324"/><polygon class="cls-156" points="1243.12 336.42 749.05 787.92 742.87 781.15 1243.12 324 1243.12 336.42"/><polygon class="cls-156" points="1243.12 339.11 750.39 789.39 749.05 787.92 1243.12 336.42 1243.12 339.11"/><polygon class="cls-157" points="1243.12 341.79 751.73 790.85 750.39 789.39 1243.12 339.11 1243.12 341.79"/><polygon class="cls-158" points="1243.12 344.47 753.06 792.31 751.73 790.85 1243.12 341.79 1243.12 344.47"/><polygon class="cls-159" points="1243.12 347.16 754.4 793.77 753.06 792.31 1243.12 344.47 1243.12 347.16"/><polygon class="cls-160" points="1243.12 349.84 755.73 795.23 754.4 793.77 1243.12 347.16 1243.12 349.84"/><polygon class="cls-161" points="1243.12 352.52 757.07 796.7 755.73 795.23 1243.12 349.84 1243.12 352.52"/><polygon class="cls-162" points="1243.12 355.21 758.41 798.16 757.07 796.7 1243.12 352.52 1243.12 355.21"/><polygon class="cls-119" points="1243.12 357.89 759.74 799.62 758.41 798.16 1243.12 355.21 1243.12 357.89"/><polygon class="cls-120" points="1243.12 360.57 761.08 801.08 759.74 799.62 1243.12 357.89 1243.12 360.57"/><polygon class="cls-121" points="1243.12 363.26 762.42 802.54 761.08 801.08 1243.12 360.57 1243.12 363.26"/><polygon class="cls-122" points="1243.12 365.94 763.75 804.01 762.42 802.54 1243.12 363.26 1243.12 365.94"/><polygon class="cls-123" points="1243.12 368.62 765.09 805.47 763.75 804.01 1243.12 365.94 1243.12 368.62"/><polygon class="cls-124" points="1243.12 371.31 766.42 806.93 765.09 805.47 1243.12 368.62 1243.12 371.31"/><polygon class="cls-125" points="1243.12 373.99 767.76 808.39 766.42 806.93 1243.12 371.31 1243.12 373.99"/><polygon class="cls-126" points="1243.12 376.67 769.1 809.86 767.76 808.39 1243.12 373.99 1243.12 376.67"/><polygon class="cls-127" points="1243.12 379.36 770.43 811.32 769.1 809.86 1243.12 376.67 1243.12 379.36"/><polygon class="cls-128" points="1243.12 382.04 771.77 812.78 770.43 811.32 1243.12 379.36 1243.12 382.04"/><polygon class="cls-129" points="1243.12 384.72 773.11 814.24 771.77 812.78 1243.12 382.04 1243.12 384.72"/><polygon class="cls-130" points="1243.12 387.41 774.44 815.71 773.11 814.24 1243.12 384.72 1243.12 387.41"/><polygon class="cls-131" points="1243.12 390.09 775.78 817.17 774.44 815.71 1243.12 387.41 1243.12 390.09"/><polygon class="cls-132" points="1243.12 392.77 777.11 818.63 775.78 817.17 1243.12 390.09 1243.12 392.77"/><polygon class="cls-133" points="1243.12 395.46 778.45 820.09 777.11 818.63 1243.12 392.77 1243.12 395.46"/><polygon class="cls-134" points="1243.12 398.14 779.79 821.55 778.45 820.09 1243.12 395.46 1243.12 398.14"/><polygon class="cls-135" points="1243.12 400.82 781.12 823.02 779.79 821.55 1243.12 398.14 1243.12 400.82"/><polygon class="cls-136" points="1243.12 403.51 782.46 824.48 781.12 823.02 1243.12 400.82 1243.12 403.51"/><polygon class="cls-137" points="1243.12 406.19 783.79 825.94 782.46 824.48 1243.12 403.51 1243.12 406.19"/><polygon class="cls-138" points="1243.12 408.87 785.13 827.4 783.79 825.94 1243.12 406.19 1243.12 408.87"/><polygon class="cls-139" points="1243.12 411.56 786.47 828.87 785.13 827.4 1243.12 408.87 1243.12 411.56"/><polygon class="cls-140" points="1243.12 414.24 787.8 830.33 786.47 828.87 1243.12 411.56 1243.12 414.24"/><polygon class="cls-141" points="1243.12 416.92 789.14 831.79 787.8 830.33 1243.12 414.24 1243.12 416.92"/><polygon class="cls-142" points="1243.12 419.61 790.48 833.25 789.14 831.79 1243.12 416.92 1243.12 419.61"/><polygon class="cls-143" points="1243.12 422.29 791.81 834.71 790.48 833.25 1243.12 419.61 1243.12 422.29"/><polygon class="cls-144" points="1243.12 424.97 793.15 836.18 791.81 834.71 1243.12 422.29 1243.12 424.97"/><polygon class="cls-145" points="1243.12 427.66 794.49 837.64 793.15 836.18 1243.12 424.97 1243.12 427.66"/><polygon class="cls-146" points="1243.12 430.34 795.82 839.1 794.49 837.64 1243.12 427.66 1243.12 430.34"/><polygon class="cls-147" points="1243.12 433.02 797.16 840.56 795.82 839.1 1243.12 430.34 1243.12 433.02"/><polygon class="cls-148" points="1243.12 435.7 798.49 842.02 797.16 840.56 1243.12 433.02 1243.12 435.7"/><polygon class="cls-149" points="1243.12 438.39 799.83 843.49 798.49 842.02 1243.12 435.7 1243.12 438.39"/><polygon class="cls-150" points="1243.12 441.07 801.17 844.95 799.83 843.49 1243.12 438.39 1243.12 441.07"/><polygon class="cls-151" points="1243.12 443.75 802.5 846.41 801.17 844.95 1243.12 441.07 1243.12 443.75"/><polygon class="cls-152" points="1243.12 446.44 803.84 847.87 802.5 846.41 1243.12 443.75 1243.12 446.44"/><polygon class="cls-153" points="1243.12 449.12 805.17 849.34 803.84 847.87 1243.12 446.44 1243.12 449.12"/><polygon class="cls-154" points="1243.12 451.81 806.51 850.8 805.17 849.34 1243.12 449.12 1243.12 451.81"/><polygon class="cls-3" points="1243.12 454.49 807.85 852.26 806.51 850.8 1243.12 451.81 1243.12 454.49"/><polygon class="cls-4" points="1243.12 457.17 809.18 853.72 807.85 852.26 1243.12 454.49 1243.12 457.17"/><polygon class="cls-5" points="1243.12 459.86 810.52 855.18 809.18 853.72 1243.12 457.17 1243.12 459.86"/><polygon class="cls-6" points="1243.12 462.54 811.86 856.65 810.52 855.18 1243.12 459.86 1243.12 462.54"/><polygon class="cls-7" points="1243.12 465.22 813.19 858.11 811.86 856.65 1243.12 462.54 1243.12 465.22"/><polygon class="cls-8" points="1243.12 467.9 814.53 859.57 813.19 858.11 1243.12 465.22 1243.12 467.9"/><polygon class="cls-9" points="1243.12 470.59 815.86 861.03 814.53 859.57 1243.12 467.9 1243.12 470.59"/><polygon class="cls-10" points="1243.12 473.27 817.2 862.5 815.86 861.03 1243.12 470.59 1243.12 473.27"/><polygon class="cls-11" points="1243.12 475.95 818.54 863.96 817.2 862.5 1243.12 473.27 1243.12 475.95"/><polygon class="cls-12" points="1243.12 478.64 819.87 865.42 818.54 863.96 1243.12 475.95 1243.12 478.64"/><polygon class="cls-13" points="1243.12 481.32 821.21 866.88 819.87 865.42 1243.12 478.64 1243.12 481.32"/><polygon class="cls-14" points="1243.12 484 822.54 868.34 821.21 866.88 1243.12 481.32 1243.12 484"/><polygon class="cls-15" points="1243.12 486.69 823.88 869.81 822.54 868.34 1243.12 484 1243.12 486.69"/><polygon class="cls-16" points="1243.12 489.37 825.22 871.27 823.88 869.81 1243.12 486.69 1243.12 489.37"/><polygon class="cls-17" points="1243.12 492.05 826.55 872.73 825.22 871.27 1243.12 489.37 1243.12 492.05"/><polygon class="cls-18" points="1243.12 494.74 827.89 874.19 826.55 872.73 1243.12 492.05 1243.12 494.74"/><polygon class="cls-19" points="1243.12 497.42 829.23 875.65 827.89 874.19 1243.12 494.74 1243.12 497.42"/><polygon class="cls-20" points="1243.12 500.1 830.56 877.12 829.23 875.65 1243.12 497.42 1243.12 500.1"/><polygon class="cls-21" points="1243.12 502.79 831.9 878.58 830.56 877.12 1243.12 500.1 1243.12 502.79"/><polygon class="cls-22" points="1243.12 505.47 833.24 880.04 831.9 878.58 1243.12 502.79 1243.12 505.47"/><polygon class="cls-23" points="1243.12 508.15 834.57 881.5 833.24 880.04 1243.12 505.47 1243.12 508.15"/><polygon class="cls-24" points="1243.12 510.84 835.91 882.97 834.57 881.5 1243.12 508.15 1243.12 510.84"/><polygon class="cls-25" points="1243.12 513.52 837.24 884.43 835.91 882.97 1243.12 510.84 1243.12 513.52"/><polygon class="cls-26" points="1243.12 516.2 838.58 885.89 837.24 884.43 1243.12 513.52 1243.12 516.2"/><polygon class="cls-27" points="1243.12 518.89 839.92 887.35 838.58 885.89 1243.12 516.2 1243.12 518.89"/><polygon class="cls-28" points="1243.12 521.57 841.25 888.81 839.92 887.35 1243.12 518.89 1243.12 521.57"/><polygon class="cls-29" points="1243.12 524.25 842.59 890.28 841.25 888.81 1243.12 521.57 1243.12 524.25"/><polygon class="cls-30" points="1243.12 526.94 843.92 891.74 842.59 890.28 1243.12 524.25 1243.12 526.94"/><polygon class="cls-31" points="1243.12 529.62 845.26 893.2 843.92 891.74 1243.12 526.94 1243.12 529.62"/><polygon class="cls-32" points="1243.12 532.3 846.6 894.66 845.26 893.2 1243.12 529.62 1243.12 532.3"/><polygon class="cls-33" points="1243.12 534.99 847.93 896.13 846.6 894.66 1243.12 532.3 1243.12 534.99"/><polygon class="cls-34" points="1243.12 537.67 849.27 897.59 847.93 896.13 1243.12 534.99 1243.12 537.67"/><polygon class="cls-35" points="1243.12 540.35 850.61 899.05 849.27 897.59 1243.12 537.67 1243.12 540.35"/><polygon class="cls-36" points="1243.12 543.04 851.94 900.51 850.61 899.05 1243.12 540.35 1243.12 543.04"/><polygon class="cls-37" points="1243.12 545.72 853.28 901.97 851.94 900.51 1243.12 543.04 1243.12 545.72"/><polygon class="cls-38" points="1243.12 548.4 854.61 903.44 853.28 901.97 1243.12 545.72 1243.12 548.4"/><polygon class="cls-39" points="1243.12 551.09 855.95 904.9 854.61 903.44 1243.12 548.4 1243.12 551.09"/><polygon class="cls-40" points="1243.12 553.77 857.29 906.36 855.95 904.9 1243.12 551.09 1243.12 553.77"/><polygon class="cls-41" points="1243.12 556.45 858.62 907.82 857.29 906.36 1243.12 553.77 1243.12 556.45"/><polygon class="cls-42" points="1243.12 559.14 859.96 909.28 858.62 907.82 1243.12 556.45 1243.12 559.14"/><polygon class="cls-43" points="1243.12 561.82 861.3 910.75 859.96 909.28 1243.12 559.14 1243.12 561.82"/><polygon class="cls-44" points="1243.12 564.5 862.63 912.21 861.3 910.75 1243.12 561.82 1243.12 564.5"/><polygon class="cls-45" points="1243.12 567.19 863.97 913.67 862.63 912.21 1243.12 564.5 1243.12 567.19"/><polygon class="cls-46" points="1243.12 569.87 865.3 915.13 863.97 913.67 1243.12 567.19 1243.12 569.87"/><polygon class="cls-47" points="1243.12 572.55 866.64 916.6 865.3 915.13 1243.12 569.87 1243.12 572.55"/><polygon class="cls-48" points="1243.12 575.24 867.98 918.06 866.64 916.6 1243.12 572.55 1243.12 575.24"/><polygon class="cls-49" points="1243.12 577.92 869.31 919.52 867.98 918.06 1243.12 575.24 1243.12 577.92"/><polygon class="cls-50" points="1243.12 580.6 870.65 920.98 869.31 919.52 1243.12 577.92 1243.12 580.6"/><polygon class="cls-51" points="1243.12 583.29 871.99 922.45 870.65 920.98 1243.12 580.6 1243.12 583.29"/><polygon class="cls-52" points="1243.12 585.97 873.32 923.91 871.99 922.45 1243.12 583.29 1243.12 585.97"/><polygon class="cls-53" points="1243.12 588.65 874.66 925.37 873.32 923.91 1243.12 585.97 1243.12 588.65"/><polygon class="cls-54" points="1243.12 591.34 875.99 926.83 874.66 925.37 1243.12 588.65 1243.12 591.34"/><polygon class="cls-55" points="1243.12 594.02 877.33 928.29 875.99 926.83 1243.12 591.34 1243.12 594.02"/><polygon class="cls-56" points="1243.12 596.7 878.67 929.76 877.33 928.29 1243.12 594.02 1243.12 596.7"/><polygon class="cls-57" points="1243.12 599.39 880 931.22 878.67 929.76 1243.12 596.7 1243.12 599.39"/><polygon class="cls-58" points="1243.12 602.07 881.34 932.68 880 931.22 1243.12 599.39 1243.12 602.07"/><polygon class="cls-59" points="1243.12 604.75 882.67 934.14 881.34 932.68 1243.12 602.07 1243.12 604.75"/><polygon class="cls-60" points="1243.12 607.44 884.01 935.61 882.67 934.14 1243.12 604.75 1243.12 607.44"/><polygon class="cls-61" points="1243.12 610.12 885.35 937.07 884.01 935.61 1243.12 607.44 1243.12 610.12"/><polygon class="cls-62" points="1243.12 612.8 886.68 938.53 885.35 937.07 1243.12 610.12 1243.12 612.8"/><polygon class="cls-63" points="1243.12 615.49 888.02 939.99 886.68 938.53 1243.12 612.8 1243.12 615.49"/><polygon class="cls-64" points="1243.12 618.17 889.36 941.45 888.02 939.99 1243.12 615.49 1243.12 618.17"/><polygon class="cls-65" points="1243.12 620.85 890.69 942.91 889.36 941.45 1243.12 618.17 1243.12 620.85"/><polygon class="cls-66" points="1243.12 623.53 892.03 944.38 890.69 942.91 1243.12 620.85 1243.12 623.53"/><polygon class="cls-67" points="1243.12 626.22 893.37 945.84 892.03 944.38 1243.12 623.53 1243.12 626.22"/><polygon class="cls-68" points="1243.12 628.9 894.7 947.3 893.37 945.84 1243.12 626.22 1243.12 628.9"/><polygon class="cls-69" points="1243.12 631.59 896.04 948.76 894.7 947.3 1243.12 628.9 1243.12 631.59"/><polygon class="cls-70" points="1243.12 634.27 897.37 950.23 896.04 948.76 1243.12 631.59 1243.12 634.27"/><polygon class="cls-71" points="1243.12 636.95 898.71 951.69 897.37 950.23 1243.12 634.27 1243.12 636.95"/><polygon class="cls-72" points="1243.12 639.63 900.05 953.15 898.71 951.69 1243.12 636.95 1243.12 639.63"/><polygon class="cls-73" points="1243.12 642.32 901.38 954.61 900.05 953.15 1243.12 639.63 1243.12 642.32"/><polygon class="cls-74" points="1243.12 645 902.72 956.08 901.38 954.61 1243.12 642.32 1243.12 645"/><polygon class="cls-75" points="1243.12 647.68 904.05 957.54 902.72 956.08 1243.12 645 1243.12 647.68"/><polygon class="cls-76" points="1243.12 650.37 905.39 959 904.05 957.54 1243.12 647.68 1243.12 650.37"/><polygon class="cls-77" points="1243.12 653.05 906.73 960.46 905.39 959 1243.12 650.37 1243.12 653.05"/><polygon class="cls-78" points="1243.12 655.74 909.56 960.55 906.81 960.55 906.73 960.46 1243.12 653.05 1243.12 655.74"/><polygon class="cls-79" points="1243.12 658.42 912.5 960.55 909.56 960.55 1243.12 655.74 1243.12 658.42"/><polygon class="cls-80" points="1243.12 661.1 915.43 960.55 912.5 960.55 1243.12 658.42 1243.12 661.1"/><polygon class="cls-81" points="1243.12 663.78 918.37 960.55 915.43 960.55 1243.12 661.1 1243.12 663.78"/><polygon class="cls-82" points="1243.12 666.47 921.31 960.55 918.37 960.55 1243.12 663.78 1243.12 666.47"/><polygon class="cls-83" points="1243.12 669.15 924.24 960.55 921.31 960.55 1243.12 666.47 1243.12 669.15"/><polygon class="cls-84" points="1243.12 671.84 927.18 960.55 924.24 960.55 1243.12 669.15 1243.12 671.84"/><polygon class="cls-85" points="1243.12 674.52 930.12 960.55 927.18 960.55 1243.12 671.84 1243.12 674.52"/><polygon class="cls-86" points="1243.12 677.2 933.05 960.55 930.12 960.55 1243.12 674.52 1243.12 677.2"/><polygon class="cls-87" points="1243.12 679.88 935.99 960.55 933.05 960.55 1243.12 677.2 1243.12 679.88"/><polygon class="cls-88" points="1243.12 682.57 938.92 960.55 935.99 960.55 1243.12 679.88 1243.12 682.57"/><polygon class="cls-89" points="1243.12 685.25 941.86 960.55 938.92 960.55 1243.12 682.57 1243.12 685.25"/><polygon class="cls-90" points="1243.12 687.93 944.8 960.55 941.86 960.55 1243.12 685.25 1243.12 687.93"/><polygon class="cls-91" points="1243.12 690.62 947.73 960.55 944.8 960.55 1243.12 687.93 1243.12 690.62"/><polygon class="cls-92" points="1243.12 693.3 950.67 960.55 947.73 960.55 1243.12 690.62 1243.12 693.3"/><polygon class="cls-93" points="1243.12 695.98 953.61 960.55 950.67 960.55 1243.12 693.3 1243.12 695.98"/><polygon class="cls-94" points="1243.12 698.67 956.54 960.55 953.61 960.55 1243.12 695.98 1243.12 698.67"/><polygon class="cls-95" points="1243.12 701.35 959.48 960.55 956.54 960.55 1243.12 698.67 1243.12 701.35"/><polygon class="cls-96" points="1243.12 704.03 962.41 960.55 959.48 960.55 1243.12 701.35 1243.12 704.03"/><polygon class="cls-97" points="1243.12 706.72 965.35 960.55 962.41 960.55 1243.12 704.03 1243.12 706.72"/><polygon class="cls-98" points="1243.12 709.4 968.29 960.55 965.35 960.55 1243.12 706.72 1243.12 709.4"/><polygon class="cls-99" points="1243.12 712.08 971.22 960.55 968.29 960.55 1243.12 709.4 1243.12 712.08"/><polygon class="cls-100" points="1243.12 714.77 974.16 960.55 971.22 960.55 1243.12 712.08 1243.12 714.77"/><polygon class="cls-101" points="1243.12 717.45 977.1 960.55 974.16 960.55 1243.12 714.77 1243.12 717.45"/><polygon class="cls-102" points="1243.12 720.13 980.03 960.55 977.1 960.55 1243.12 717.45 1243.12 720.13"/><polygon class="cls-103" points="1243.12 722.82 982.97 960.55 980.03 960.55 1243.12 720.13 1243.12 722.82"/><polygon class="cls-104" points="1243.12 725.5 985.9 960.55 982.97 960.55 1243.12 722.82 1243.12 725.5"/><polygon class="cls-105" points="1243.12 728.18 988.84 960.55 985.9 960.55 1243.12 725.5 1243.12 728.18"/><polygon class="cls-106" points="1243.12 730.87 991.78 960.55 988.84 960.55 1243.12 728.18 1243.12 730.87"/><polygon class="cls-107" points="1243.12 733.55 994.71 960.55 991.78 960.55 1243.12 730.87 1243.12 733.55"/><polygon class="cls-108" points="1243.12 736.23 997.65 960.55 994.71 960.55 1243.12 733.55 1243.12 736.23"/><polygon class="cls-109" points="1243.12 738.92 1000.59 960.55 997.65 960.55 1243.12 736.23 1243.12 738.92"/><polygon class="cls-110" points="1243.12 741.6 1003.52 960.55 1000.59 960.55 1243.12 738.92 1243.12 741.6"/><polygon class="cls-111" points="1243.12 744.28 1006.46 960.55 1003.52 960.55 1243.12 741.6 1243.12 744.28"/><polygon class="cls-112" points="1243.12 746.97 1009.39 960.55 1006.46 960.55 1243.12 744.28 1243.12 746.97"/><polygon class="cls-113" points="1243.12 749.65 1012.33 960.55 1009.39 960.55 1243.12 746.97 1243.12 749.65"/><polygon class="cls-114" points="1243.12 752.33 1015.27 960.55 1012.33 960.55 1243.12 749.65 1243.12 752.33"/><polygon class="cls-115" points="1243.12 755.02 1018.2 960.55 1015.27 960.55 1243.12 752.33 1243.12 755.02"/><polygon class="cls-116" points="1243.12 757.7 1021.14 960.55 1018.2 960.55 1243.12 755.02 1243.12 757.7"/><polygon class="cls-117" points="1243.12 760.38 1024.08 960.55 1021.14 960.55 1243.12 757.7 1243.12 760.38"/><polygon class="cls-118" points="1243.12 763.07 1027.01 960.55 1024.08 960.55 1243.12 760.38 1243.12 763.07"/><polygon class="cls-118" points="1027.01 960.55 1243.12 763.07 1243.12 960.55 1027.01 960.55"/></g><polygon class="cls-207" points="1184.28 789.04 1086.56 884.23 993.3 703.62 1081.22 767.15 1153.71 681.54 1184.28 789.04"/><polygon class="cls-207" points="963.74 689.45 963.74 783.3 841.4 810.22 841.4 734.71 963.74 689.45"/><polygon class="cls-207" points="1075.11 895.9 918.4 942.06 856.35 822.78 979.25 795.75 979.25 710.25 1075.11 895.9"/><path class="cls-195" d="M1138.71,555.86s43.47-103,81.51-108.55"/><path class="cls-195" d="M1179.47,571s27.67-52.33,51-46.69S1179.47,571,1179.47,571Z"/><path class="cls-195" d="M1230.19,485.51s27.67-52.33,51-46.69S1230.19,485.51,1230.19,485.51Z"/><path class="cls-195" d="M853.46,680.43S777.64,598.31,740,606"/><path class="cls-195" d="M818.39,692.67s-57.08-15.7-69,5.17S818.39,692.67,818.39,692.67Z"/><path class="cls-195" d="M769.16,663.59c9.45,5.44-41-40.88-67.58-29.55C679.5,643.47,769.16,663.59,769.16,663.59Z"/></g></svg>