<svg id="box" xmlns="http://www.w3.org/2000/svg" viewBox="0 0 100 205"><defs><style>.cls-1,.cls-3{fill:#d2104d;}.cls-2{fill:#d9d9d9;}.cls-3,.cls-4{stroke:#d2104d;stroke-miterlimit:10;}.cls-3{stroke-width:4px;}.cls-4{fill:none;stroke-width:7px;}</style></defs><polygon class="cls-1" points="71.24 151.63 71.19 152.29 71.19 152.29 65.52 154.05 65.6 153.11 62.8 152.87 62.69 154.12 46.94 150.93 51.12 148.91 64.13 151.54 67.37 150.54 71.24 151.63"/><polygon class="cls-1" points="83.99 145.38 78.69 193.88 60.06 204.95 18.95 199.47 25.73 143.77 25.77 143.78 26.68 146.42 31.17 144.88 31.18 144.88 45.27 147.73 43.08 148.78 42.94 150.12 28.14 147.13 22.08 197.05 38.01 199.18 37.86 200.63 41.45 201 41.59 199.65 58.49 201.91 58.36 203.37 61.16 203.62 61.4 200.88 67.8 197.08 67.76 197.53 71.37 197.8 71.59 194.82 76.05 192.18 80.73 149.33 74.9 151.14 75.08 148.79 73.92 148.5 78.51 147.08 83.41 148.12 83.99 145.38"/><polygon class="cls-2" points="80.73 149.33 76.05 192.18 71.59 194.82 74.9 151.14 80.73 149.33"/><polygon class="cls-2" points="62.69 154.12 58.49 201.91 41.59 199.65 46.47 151.16 46.94 150.93 62.69 154.12"/><polygon class="cls-2" points="42.94 150.12 38.01 199.18 22.08 197.05 28.14 147.13 42.94 150.12"/><polygon class="cls-1" points="65.52 154.05 61.4 200.88 59.47 202.04 58.49 201.91 62.69 154.12 64.28 154.44 65.52 154.05"/><polygon class="cls-1" points="61.4 200.88 61.16 203.62 58.36 203.37 58.49 201.91 59.47 202.04 61.4 200.88"/><polygon class="cls-1" points="65.6 153.11 65.52 154.05 64.28 154.44 62.69 154.12 62.8 152.87 65.6 153.11"/><polygon class="cls-1" points="60.5 140.36 56.38 142.36 56.37 142.36 45.34 140.01 42.87 140.85 40.27 140.21 36.53 141.81 38.48 142.36 31.18 144.88 31.17 144.88 25.77 143.78 25.77 143.76 45.16 137.1 60.5 140.36"/><polygon class="cls-1" points="31.17 144.88 26.68 146.42 25.77 143.78 31.17 144.88"/><polygon class="cls-1" points="83.99 145.37 83.99 145.38 78.51 147.08 62.09 143.58 60.54 140.37 83.99 145.37"/><polygon class="cls-1" points="83.99 145.38 83.41 148.12 78.51 147.08 83.99 145.38"/><polygon class="cls-1" points="46.94 150.93 46.47 151.16 41.59 199.65 38.01 199.18 42.94 150.12 46.94 150.93"/><polygon class="cls-1" points="41.59 199.65 41.45 201 37.86 200.63 38.01 199.18 41.59 199.65"/><polygon class="cls-1" points="54.99 147.04 51.12 148.91 45.27 147.73 49.76 145.56 54.99 147.04"/><polygon class="cls-1" points="51.12 148.91 46.94 150.93 42.94 150.12 43.08 148.78 45.27 147.73 51.12 148.91"/><polygon class="cls-1" points="62.1 143.6 59.37 144.92 53.88 143.56 56.37 142.36 56.38 142.36 62.09 143.58 62.1 143.6"/><polygon class="cls-1" points="62.09 143.58 56.38 142.36 60.5 140.36 60.54 140.37 62.09 143.58"/><polygon points="60.54 140.37 60.5 140.36 60.53 140.35 60.54 140.37"/><polygon class="cls-2" points="71.19 152.29 67.8 197.08 61.4 200.88 65.52 154.05 71.19 152.29"/><polygon class="cls-2" points="49.76 145.56 45.27 147.73 31.18 144.88 38.48 142.36 49.76 145.56"/><polygon class="cls-2" points="67.37 150.54 64.13 151.54 51.12 148.91 54.99 147.04 67.37 150.54"/><polygon class="cls-2" points="56.37 142.36 53.88 143.56 42.87 140.85 45.34 140.01 56.37 142.36"/><polygon class="cls-2" points="78.51 147.08 73.92 148.5 59.37 144.92 62.1 143.6 62.09 143.58 78.51 147.08"/><polygon class="cls-1" points="74.9 151.14 71.59 194.82 67.8 197.08 71.19 152.29 71.19 152.29 74.9 151.14"/><polygon class="cls-1" points="71.59 194.82 71.37 197.8 67.76 197.53 67.8 197.08 71.59 194.82"/><polygon class="cls-1" points="75.08 148.79 74.9 151.14 71.19 152.29 71.24 151.63 67.37 150.54 73.92 148.5 75.08 148.79"/><polygon class="cls-1" points="73.92 148.5 67.37 150.54 54.99 147.04 59.37 144.92 73.92 148.5"/><polygon class="cls-1" points="59.37 144.92 54.99 147.04 49.76 145.56 53.88 143.56 59.37 144.92"/><polygon class="cls-1" points="53.88 143.56 49.76 145.56 38.48 142.36 42.87 140.85 53.88 143.56"/><polygon class="cls-1" points="42.87 140.85 38.48 142.36 36.53 141.81 40.27 140.21 42.87 140.85"/><path class="cls-3" d="M56.37,76.52S-3.93,48.15,12.12,22.46s39.66-4.64,39.66-4.64S61.19-6.08,78.51,6.05,56.37,76.52,56.37,76.52Z"/><path class="cls-4" d="M55,68.54s10.84,36.68,1.38,39.18S55,145.3,55,145.3"/></svg>